<svg xmlns="http://www.w3.org/2000/svg" viewBox="0 0 256 138" fill="none" stroke="#000000" stroke-width="3.4" stroke-linecap="round" stroke-linejoin="round">

  
  <path d="M 100 78&#xA;           L 100 46&#xA;           C 100 24 112 22 128 22&#xA;           C 144 22 156 24 156 46&#xA;           L 156 78"></path>
  
  <line x1="118" y1="44" x2="138" y2="44"></line>

  
  <path d="M 14 62 L 14 66 C 14 71 18 71 22 71 L 30 71"></path>

  
  <path d="M 30 71&#xA;           C 34 60 40 60 44 71&#xA;           C 46 108 54 108 56 71&#xA;           C 60 58 66 58 70 71&#xA;           C 72 100 80 100 82 71&#xA;           C 86 62 92 62 96 71&#xA;           C 98 95 100 95 100 78"></path>

  
  <path d="M 100 78&#xA;           C 104 90 110 58 114 71&#xA;           C 116 108 122 130 128 78&#xA;           C 128 78 128 78 128 78&#xA;           M 128 78&#xA;           C 134 130 140 108 142 71&#xA;           C 146 58 152 90 156 78"></path>

  
  <path d="M 156 78&#xA;           C 156 95 158 95 160 71&#xA;           C 164 62 170 62 174 71&#xA;           C 176 100 184 100 186 71&#xA;           C 190 58 196 58 200 71&#xA;           C 202 108 210 108 212 71&#xA;           C 216 60 222 60 226 71"></path>

  
  <path d="M 242 62 L 242 66 C 242 71 238 71 234 71 L 226 71"></path>

</svg>